<svg width="49" height="45" viewBox="0 0 49 45" fill="none" xmlns="http://www.w3.org/2000/svg">
<g clip-path="url(#clip0_3129_3223)">
<path fill-rule="evenodd" clip-rule="evenodd" d="M47.3367 11.8229L43.0763 17.7812L38.8159 11.8229H41.1388C40.9617 7.39583 37.3055 3.85417 32.8367 3.85417C29.0659 3.85417 25.868 6.38541 24.8576 9.83333C23.6284 9.4375 22.3576 9.1875 21.0659 9.07291C21.2118 8.52083 21.3993 7.96875 21.6284 7.4375C22.243 5.98958 23.118 4.6875 24.2326 3.57292C25.3472 2.45833 26.6492 1.57292 28.0972 0.96875C29.5972 0.322917 31.1909 0 32.8367 0C34.4826 0 36.0763 0.322917 37.5763 0.958333C39.0242 1.57292 40.3263 2.44792 41.4409 3.5625C42.5555 4.67708 43.4305 5.97916 44.0451 7.42708C44.6388 8.82291 44.9617 10.3021 44.993 11.8229H47.3367Z" fill="#B5E93B"/>
<path fill-rule="evenodd" clip-rule="evenodd" d="M41.3784 44.9999V42.4374H26.6909C26.7951 42.3853 26.8993 42.3437 27.0034 42.2916C28.5972 41.5312 30.0659 40.5416 31.3784 39.3333C31.5555 39.1666 31.7222 39.0103 31.8784 38.8541C32.0555 38.677 32.243 38.4895 32.4201 38.2916C32.6284 38.0624 32.8368 37.8228 33.0243 37.5833H41.3784V35.0208L48.3576 40.0103L41.3784 44.9999Z" fill="#B5E93B"/>
<path fill-rule="evenodd" clip-rule="evenodd" d="M35.9618 26.4897C35.9618 28.7084 35.5243 30.8647 34.6701 32.8959C33.9409 34.6251 32.9201 36.2084 31.6493 37.5938C31.4826 37.7709 31.3159 37.948 31.1493 38.1251C30.993 38.2813 30.8368 38.4272 30.6805 38.5834C29.4513 39.7188 28.0763 40.6459 26.5763 41.3647C26.368 41.4688 26.1493 41.5626 25.9305 41.6563C25.9201 41.6563 25.9201 41.6667 25.9097 41.6667C24.6597 42.198 23.3159 42.4584 21.9513 42.4584H0.284668V37.6147H20.3993C26.4826 37.6147 31.4722 32.7501 31.5555 26.6667C31.5555 26.6147 31.5555 26.5626 31.5555 26.5105C31.5555 19.8647 26.1597 14.4688 19.5138 14.4688C12.868 14.448 7.47217 19.8334 7.47217 26.4897H10.2638L5.27425 33.4688L0.284668 26.4897H3.07634C3.07634 24.2709 3.51384 22.1147 4.368 20.0834C5.20134 18.1251 6.37842 16.3647 7.88884 14.8542C9.39925 13.3438 11.1597 12.1563 13.118 11.3334C15.1493 10.4792 17.3055 10.0417 19.5243 10.0417C19.9722 10.0417 20.4097 10.0626 20.8472 10.0938C22.1388 10.198 23.3993 10.448 24.6284 10.8542C25.0659 11.0001 25.493 11.1563 25.9201 11.3438C27.8784 12.1772 29.6388 13.3542 31.1493 14.8647C32.6597 16.3751 33.8472 18.1355 34.6701 20.0938C35.5243 22.1147 35.9618 24.2709 35.9618 26.4897Z" fill="#B5E93B"/>
</g>
<defs>
<clipPath id="clip0_3129_3223">
<rect width="48.0833" height="45" fill="white" transform="translate(0.284668)"/>
</clipPath>
</defs>
</svg>
