<svg width="48" height="45" viewBox="0 0 48 45" fill="none" xmlns="http://www.w3.org/2000/svg">
<g clip-path="url(#clip0_3129_3239)">
<path d="M7.55874 7.3501V37.7251C3.80208 33.6751 1.50208 28.3501 1.50208 22.5001C1.50208 16.6501 3.80208 11.3251 7.55874 7.3501Z" fill="white"/>
<path d="M10.0121 10.6499L23.2754 36.6749H10.0121V10.6499Z" fill="white"/>
<path d="M24.5021 33.75L11.4688 8.32495H37.5354L24.5021 33.75Z" fill="white"/>
<path d="M24.502 0C30.482 0 35.9254 2.25 39.9887 5.925H9.01538C13.0787 2.25 18.522 0 24.502 0Z" fill="white"/>
<path d="M38.9921 36.6749H25.7288L38.9921 10.6499V36.6749Z" fill="white"/>
<path d="M39.9887 39.075C35.9254 42.75 30.482 45 24.502 45C18.522 45 13.0787 42.75 9.01538 39.075H39.9887Z" fill="white"/>
<path d="M41.4454 37.6501V7.3501C45.2021 11.3251 47.5021 16.6501 47.5021 22.5001C47.5021 28.3501 45.2021 33.6751 41.4454 37.6501Z" fill="white"/>
<path d="M10.0121 10.6499L23.2754 36.6749H10.0121V10.6499Z" fill="white"/>
<path d="M24.5021 33.75L11.4688 8.32495H37.5354L24.5021 33.75Z" fill="white"/>
<path d="M25.7288 36.6749L38.9921 10.6499V36.6749H25.7288Z" fill="white"/>
<path d="M11.4688 8.32495H37.5354L24.5021 33.75L11.4688 8.32495Z" fill="white"/>
<g clip-path="url(#clip1_3129_3239)">
<path d="M8.02876 7.3501V37.7251C4.35376 33.6751 2.10376 28.3501 2.10376 22.5001C2.10376 16.6501 4.35376 11.3251 8.02876 7.3501Z" fill="white"/>
<path d="M10.4287 10.6499L23.4037 36.6749H10.4287V10.6499Z" fill="white"/>
<path d="M24.6038 33.75L11.8538 8.32495H37.3538L24.6038 33.75Z" fill="white"/>
<path d="M24.6037 0C30.4537 0 35.7787 2.25 39.7537 5.925H9.45374C13.4287 2.25 18.7537 0 24.6037 0Z" fill="white"/>
<path d="M38.7787 36.6749H25.8037L38.7787 10.6499V36.6749Z" fill="white"/>
<path d="M39.7537 39.075C35.7787 42.75 30.4537 45 24.6037 45C18.7537 45 13.4287 42.75 9.45374 39.075H39.7537Z" fill="white"/>
<path d="M41.1787 37.6501V7.3501C44.8537 11.3251 47.1037 16.6501 47.1037 22.5001C47.1037 28.3501 44.8537 33.6751 41.1787 37.6501Z" fill="white"/>
<path d="M10.4287 10.6499L23.4037 36.6749H10.4287V10.6499Z" fill="white"/>
<path d="M24.6038 33.75L11.8538 8.32495H37.3538L24.6038 33.75Z" fill="white"/>
<path d="M25.8037 36.6749L38.7787 10.6499V36.6749H25.8037Z" fill="white"/>
<path d="M11.8538 8.32495H37.3538L24.6038 33.75L11.8538 8.32495Z" fill="white"/>
</g>
<path d="M7.18264 7.3501V37.7251C3.42598 33.6751 1.12598 28.3501 1.12598 22.5001C1.12598 16.6501 3.42598 11.3251 7.18264 7.3501Z" fill="#B5E93B"/>
<path d="M9.63599 10.6499L22.8993 36.6749H9.63599V10.6499Z" fill="#B5E93B"/>
<path d="M24.126 33.75L11.0927 8.32495H37.1593L24.126 33.75Z" fill="#B5E93B"/>
<path d="M24.126 0C30.106 0 35.5493 2.25 39.6126 5.925H8.63928C12.7026 2.25 18.146 0 24.126 0Z" fill="#B5E93B"/>
<path d="M38.6159 36.6749H25.3525L38.6159 10.6499V36.6749Z" fill="#B5E93B"/>
<path d="M39.6126 39.075C35.5493 42.75 30.106 45 24.126 45C18.146 45 12.7026 42.75 8.63928 39.075H39.6126Z" fill="#B5E93B"/>
<path d="M41.0692 37.6501V7.3501C44.8259 11.3251 47.1259 16.6501 47.1259 22.5001C47.1259 28.3501 44.8259 33.6751 41.0692 37.6501Z" fill="#B5E93B"/>
<path d="M9.63599 10.6499L22.8993 36.6749H9.63599V10.6499Z" fill="#B5E93B"/>
<path d="M24.126 33.75L11.0927 8.32495H37.1593L24.126 33.75Z" fill="#B5E93B"/>
<path d="M25.3527 36.6749L38.616 10.6499V36.6749H25.3527Z" fill="#B5E93B"/>
<path d="M11.0927 8.32495H37.1593L24.126 33.75L11.0927 8.32495Z" fill="#B5E93B"/>
</g>
<defs>
<clipPath id="clip0_3129_3239">
<rect width="47" height="45" fill="white" transform="translate(0.36792)"/>
</clipPath>
<clipPath id="clip1_3129_3239">
<rect width="45" height="45" fill="white" transform="translate(2.10376)"/>
</clipPath>
</defs>
</svg>
