<svg width="43" height="45" viewBox="0 0 43 45" fill="none" xmlns="http://www.w3.org/2000/svg">
<path d="M15.8516 41.1688C12.8191 40.3159 10.1521 38.7455 7.82358 36.5523C7.09254 36.8096 6.34795 37.0668 5.58983 37.3105C5.23784 37.4188 4.88586 37.3782 4.52033 37.2428C3.87051 36.9991 3.47792 36.5253 3.19362 35.9431C2.80102 35.1715 2.30012 34.4675 1.90752 33.6958C1.55553 32.9783 1.04109 32.3556 0.743259 31.611C0.594342 31.2455 0.201743 31.0018 0.201743 30.5415C-0.150242 29.9729 0.188205 29.472 0.391274 28.9711C0.445425 28.8357 0.513115 28.6597 0.634956 28.6056C1.12232 28.389 1.366 27.9016 1.77214 27.6038C1.96167 27.4684 2.16474 27.3195 2.38135 27.157C2.06997 25.6002 1.79922 24.0433 1.79922 22.4458C1.79922 20.8619 2.08351 19.3321 2.38135 17.8159C1.85337 17.3285 1.366 16.8547 0.851562 16.4079C0.323584 15.9477 0.0122125 15.3791 0.079902 14.7834C0.120516 14.4585 0.215281 14.1065 0.377736 13.8357C0.878638 13.037 1.33893 12.1977 1.82629 11.3854C2.21889 10.7356 2.55734 10.0587 2.99055 9.42238C3.2207 9.09747 3.35607 8.71841 3.58622 8.37996C4.03297 7.74368 4.92647 7.43231 5.65752 7.64892C6.30734 7.83845 6.91654 8.12274 7.5799 8.24459C7.64759 8.25812 7.70174 8.35289 7.76943 8.42058C10.1115 6.24097 12.7785 4.68412 15.838 3.77708C15.9599 3.41155 15.9869 3.01895 16.1359 2.63989C16.2442 2.3556 16.2171 2.00361 16.2712 1.69224C16.4202 0.879964 16.9211 0.406137 17.6386 0.162455C17.8958 0.0812274 18.153 0 18.4644 0C20.3597 0.0270758 22.255 0.0270758 24.1503 0C24.6918 0 25.1521 0.216607 25.5853 0.460289C25.9779 0.663357 26.1945 1.09657 26.3028 1.50271C26.4924 2.24729 26.6007 3.00542 26.7496 3.79061C29.7956 4.65704 32.4626 6.2139 34.7911 8.40704C35.5221 8.14982 36.2667 7.8926 37.0248 7.64892C37.3768 7.54061 37.7288 7.58123 38.0943 7.71661C38.7442 7.96029 39.1368 8.43412 39.421 9.01624C39.8136 9.78791 40.3145 10.4919 40.7071 11.2635C41.0591 11.981 41.5736 12.6038 41.8714 13.3484C42.0203 13.7139 42.4129 13.9576 42.4129 14.4179C42.7649 14.9865 42.4265 15.4874 42.2234 15.9883C42.1692 16.1236 42.1016 16.2996 41.9797 16.3538C41.4923 16.5704 41.2487 17.0578 40.8425 17.3556C40.653 17.491 40.4499 17.6399 40.2333 17.8023C40.5447 19.3592 40.8155 20.9161 40.8155 22.5135C40.8155 24.0975 40.5718 25.6273 40.2333 27.1435C40.7613 27.6309 41.2487 28.1047 41.7631 28.5514C42.2911 29.0117 42.6025 29.5803 42.5348 30.176C42.4942 30.5009 42.4129 30.8529 42.2369 31.1236C41.7496 31.9088 41.2893 32.7211 40.8155 33.5199C40.2198 34.5081 39.7324 35.5776 39.042 36.5117C38.9201 37.0262 38.4328 37.0668 38.0808 37.2563C37.7017 37.4594 37.3227 37.4052 36.903 37.2834C36.2803 37.1074 35.6846 36.796 35.0348 36.7148C34.9671 36.7013 34.9129 36.6065 34.8452 36.5388C32.5032 38.7455 29.8498 40.3159 26.7496 41.1958C26.6007 41.9269 26.4653 42.685 26.3028 43.4296C26.1404 44.1606 25.653 44.6209 24.9626 44.8375C24.7053 44.9188 24.4346 45 24.1368 45C22.2414 44.9729 20.3461 44.9729 18.4508 45C17.9093 45 17.449 44.7834 17.0158 44.5397C16.6232 44.3366 16.3931 43.9034 16.3118 43.4973C16.1629 42.6986 16.014 41.954 15.8516 41.1688ZM16.7315 29.2419C17.0023 29.093 17.3137 28.9982 17.3272 28.6733C17.3543 28.1859 17.422 27.685 17.3137 27.2247C17.1241 26.4395 16.7857 25.6814 16.5826 24.8962C16.4472 24.3953 16.1494 23.9215 16.1629 23.38C15.7297 22.3105 15.459 21.1868 15.0934 20.1038C14.7956 19.2103 14.579 18.2897 14.2541 17.4097C14.0781 16.9224 14.0375 16.3809 13.7126 15.9477C13.6855 15.907 13.672 15.88 13.672 15.88C13.3064 15.6363 12.9274 15.7175 12.6025 15.7175C12.4129 15.8935 12.2505 16.0424 12.1016 16.1778C12.088 16.611 11.7767 16.9495 11.8308 17.3691C11.357 18.4251 11.1539 19.5623 10.7613 20.6453C10.5582 21.2004 10.4364 21.769 10.2739 22.3375C10.125 22.9061 9.80012 23.4206 9.80012 24.0298C9.28568 25.1805 9.02846 26.4125 8.64939 27.6173C8.55463 27.9152 8.50048 28.1995 8.69001 28.4838C8.74416 28.565 8.71708 28.6868 8.71708 28.6733C8.93369 28.9034 9.09615 29.0659 9.23153 29.2283C9.48875 29.2283 9.7595 29.2283 10.0438 29.2283C10.2333 28.9847 10.4229 28.7545 10.5989 28.5244C10.5582 27.7527 10.7207 27.2383 11.0727 26.4125C12.3994 26.4125 13.7261 26.4125 15.0528 26.4125C15.1611 26.8457 15.2153 27.2653 15.3642 27.6579C15.4319 27.8204 15.4996 27.9829 15.4725 28.1453C15.4319 28.6462 15.5943 29.0388 16.1629 29.2283C16.2983 29.2419 16.5014 29.2419 16.7315 29.2419ZM19.8994 29.2419C20.2649 29.2148 20.6846 29.3231 20.9824 29.0253C21.0907 28.8899 21.1855 28.7545 21.3209 28.565C21.3209 27.2112 21.3209 25.7897 21.3209 24.3682C22.3091 24.3682 23.2839 24.3276 24.2451 24.3818C24.8272 24.4088 25.301 24.2329 25.7613 23.9486C25.9779 23.8132 26.1674 23.6101 26.357 23.4206C26.8579 22.9332 27.1016 22.3375 27.1151 21.6336C27.1151 20.5235 27.1151 19.4269 27.1151 18.3168C27.1151 18.1543 27.0745 17.9783 27.0339 17.8159C26.885 17.2338 26.5736 16.8005 26.1539 16.4215C25.6665 15.9747 25.0979 15.704 24.4211 15.704C22.9048 15.704 21.4021 15.704 19.8723 15.704C19.7234 15.8664 19.5745 16.0289 19.3985 16.1913C19.3985 20.361 19.3985 24.5578 19.3985 28.7681C19.5745 28.917 19.7369 29.0794 19.8994 29.2419ZM29.6467 29.2419C30.5808 29.2419 31.5285 29.2419 32.4626 29.2419C32.625 29.0794 32.7875 28.917 32.9499 28.7681C32.9499 28.5108 32.9499 28.2671 32.9499 28.0099C32.9499 27.9829 32.9499 27.9693 32.9499 27.9558C32.7469 27.5767 32.4355 27.3466 32.0294 27.306C32.0294 24.0704 32.0294 20.8484 32.0294 17.694C32.3272 17.5451 32.5844 17.4097 32.8822 17.2473C32.9229 16.8953 32.9499 16.5298 32.977 16.2726C32.7604 16.0289 32.6115 15.8529 32.4896 15.7175C31.5149 15.7175 30.5673 15.7175 29.7279 15.7175C29.4978 15.9206 29.3353 16.0695 29.1322 16.259C29.1729 16.5839 29.227 16.9495 29.2676 17.2608C29.5925 17.4233 29.8498 17.5587 30.0799 17.6805C30.0799 20.9025 30.0799 24.1245 30.0799 27.3195C29.9445 27.3466 29.7956 27.3195 29.7414 27.3872C29.5519 27.5767 29.227 27.6309 29.1593 27.9422C29.1593 28.213 29.1593 28.4838 29.1593 28.7545C29.3218 28.917 29.4842 29.0794 29.6467 29.2419Z" fill="#B5E93B"/>
<path d="M14.3353 24.3414C13.5366 24.3685 12.6973 24.382 11.8579 24.4091C11.8308 24.4091 11.7902 24.4632 11.709 24.5309C11.7225 23.6916 12.1963 23.0147 12.2505 22.243C12.6566 21.5661 12.6973 20.7674 12.968 20.0093C13.0492 20.0905 13.1711 20.1717 13.1711 20.2394C13.1846 20.8216 13.5231 21.3225 13.6314 21.8775C13.7126 22.2566 13.9292 22.6221 13.9834 23.0012C14.0375 23.4885 14.3624 23.854 14.3353 24.3414Z" fill="#B5E93B"/>
<path d="M25.2334 21.7158C25.1386 21.8647 25.0574 22.0136 24.9491 22.149C24.7596 22.3656 24.5159 22.4874 24.2045 22.4739C23.2569 22.4604 22.3092 22.4739 21.3345 22.4739C21.3345 20.8629 21.3345 19.2519 21.3345 17.6003C22.3227 17.6003 23.3381 17.5867 24.3399 17.6003C24.8137 17.6138 25.2199 18.1012 25.2334 18.6156C25.2334 19.4685 25.2334 20.3214 25.2334 21.1743C25.2334 21.3638 25.2334 21.5398 25.2334 21.7158Z" fill="#B5E93B"/>
</svg>
