<svg width="46" height="45" viewBox="0 0 46 45" fill="none" xmlns="http://www.w3.org/2000/svg">
<path d="M22.8679 1.35014C25.7235 1.35014 28.4912 1.91044 31.1037 3.0108C32.3594 3.5441 33.5677 4.19892 34.6951 4.96175C35.8157 5.71782 36.8688 6.58866 37.8274 7.54726C38.786 8.50585 39.6569 9.55896 40.4129 10.6796C41.1758 11.8069 41.8306 13.0221 42.3639 14.2709C43.4642 16.8767 44.0245 19.6445 44.0245 22.5068C44.0245 25.369 43.4642 28.1301 42.3639 30.7426C41.8306 31.9982 41.1758 33.2066 40.4129 34.3339C39.6569 35.4545 38.786 36.5077 37.8274 37.4662C36.8688 38.4248 35.8157 39.2957 34.6951 40.0518C33.5677 40.8146 32.3526 41.4694 31.1037 42.0027C28.498 43.1031 25.7302 43.6634 22.8679 43.6634C20.0124 43.6634 17.2446 43.1031 14.6321 42.0027C13.3765 41.4694 12.1681 40.8146 11.0407 40.0518C9.92013 39.2957 8.86702 38.4248 7.90842 37.4662C6.94983 36.5077 6.07899 35.4545 5.32292 34.3339C4.56009 33.2066 3.90527 31.9914 3.37197 30.7426C2.27836 28.1301 1.71806 25.3555 1.71806 22.5C1.71806 19.6445 2.27836 16.8767 3.37872 14.2642C3.91202 13.0086 4.56684 11.8002 5.32967 10.6728C6.08574 9.55221 6.95658 8.4991 7.91518 7.5405C8.87377 6.58191 9.92688 5.71107 11.0475 4.955C12.1749 4.19217 13.39 3.53735 14.6388 3.00405C17.2446 1.91044 20.0124 1.35014 22.8679 1.35014ZM22.8679 0C10.4399 0 0.36792 10.072 0.36792 22.5C0.36792 34.928 10.4399 45 22.8679 45C35.2959 45 45.3679 34.928 45.3679 22.5C45.3747 10.072 35.2959 0 22.8679 0Z" fill="#B5E93B"/>
<path d="M4.12109 22.4988C4.12109 29.9178 8.43478 36.3377 14.6927 39.3755L5.74801 14.8706C4.70165 17.1996 4.12109 19.7851 4.12109 22.4988ZM35.532 21.5537C35.532 19.2383 34.7017 17.6316 33.9861 16.3827C33.0343 14.8368 32.1432 13.5272 32.1432 11.988C32.1432 10.2666 33.4528 8.65994 35.289 8.65994C35.37 8.65994 35.451 8.66669 35.532 8.67344C32.1972 5.61538 27.7485 3.7522 22.8677 3.7522C16.3196 3.7522 10.5545 7.11404 7.1994 12.204C7.6382 12.2175 8.05674 12.2243 8.40777 12.2243C10.3655 12.2243 13.4033 11.988 13.4033 11.988C14.4159 11.9273 14.5306 13.4124 13.5248 13.5339C13.5248 13.5339 12.5054 13.6554 11.3781 13.7094L18.2098 34.0222L22.3142 21.7158L19.3911 13.7094C18.3785 13.6487 17.4267 13.5339 17.4267 13.5339C16.4141 13.4732 16.5356 11.9273 17.5482 11.988C17.5482 11.988 20.6468 12.2243 22.4897 12.2243C24.4474 12.2243 27.4852 11.988 27.4852 11.988C28.4978 11.9273 28.6126 13.4124 27.6067 13.5339C27.6067 13.5339 26.5874 13.6554 25.46 13.7094L32.2309 33.867L34.1684 27.7374C35.0257 25.0573 35.532 23.1604 35.532 21.5537ZM23.1985 24.1392L17.5684 40.4894C19.2494 40.9822 21.0248 41.2522 22.8677 41.2522C25.0482 41.2522 27.1477 40.8742 29.0919 40.1924C29.0446 40.1114 28.9973 40.0236 28.9568 39.9358L23.1985 24.1392ZM39.3259 13.5069C39.4069 14.101 39.4542 14.7423 39.4542 15.4376C39.4542 17.3413 39.0964 19.4813 38.0298 22.1545L32.2984 38.7072C37.8745 35.4601 41.6211 29.4183 41.6211 22.4988C41.6211 19.2383 40.7908 16.1734 39.3259 13.5069Z" fill="#B5E93B"/>
</svg>
