<svg width="46" height="45" viewBox="0 0 46 45" fill="none" xmlns="http://www.w3.org/2000/svg">
<path d="M1.49785 4.00506C1.49785 2.6226 2.61572 1.5019 3.99468 1.5019L41.5929 1.5019C42.9719 1.5019 44.0898 2.62261 44.0898 4.00507L44.0898 40.9949C44.0898 42.3774 42.9719 43.4981 41.593 43.4981L3.99468 43.4981C2.61572 43.4981 1.49785 42.3774 1.49785 40.9949L1.49785 4.00506Z" fill="#FFFDFD" stroke="#FFFDFD" stroke-width="3"/>
<path d="M23.8647 23.3883L23.5051 28.3146H20.3092L19.9097 22.4672L24.5438 19.7838L27.58 19.7838L27.58 13.4157L19.5901 13.4157V17.0203H15.5952L15.5952 12.4945L20.2293 9.81115L26.9408 9.81115L31.5749 12.4945L31.5749 20.7049L26.9408 23.3883L23.8647 23.3883ZM18.911 39.0481L18.911 33.0405H24.9034L24.9034 39.0481H18.911Z" fill="#4A4A4A"/>
</svg>
