<svg width="46" height="45" viewBox="0 0 46 45" fill="none" xmlns="http://www.w3.org/2000/svg">
<path d="M44.4466 20.5179L24.7728 0.844209C23.6472 -0.281403 21.7875 -0.281403 20.6619 0.844209L16.5999 4.9062L21.7875 10.0938C23.011 9.70228 24.3813 9.94698 25.3112 10.9258C26.29 11.9046 26.5347 13.2749 26.1431 14.4984L31.135 19.4902C32.3585 19.0987 33.7288 19.3434 34.7076 20.3222C36.0779 21.6436 36.0779 23.8458 34.7076 25.2162C33.3373 26.5865 31.1839 26.5865 29.8136 25.2162C28.7859 24.1884 28.5412 22.7202 29.0795 21.4478L24.4303 16.7985V29.0334C24.7728 29.1803 25.0665 29.425 25.3601 29.6697C26.7304 30.991 26.7304 33.1933 25.3601 34.5636C23.9898 35.885 21.8365 35.885 20.4661 34.5636C19.0958 33.1933 19.0958 31.04 20.4661 29.6697C20.8087 29.3271 21.2002 29.0824 21.5918 28.9356V16.5538C21.2002 16.407 20.8087 16.1134 20.4661 15.8197C19.4384 14.792 19.1937 13.3238 19.732 12.0514L14.5934 6.96166L1.13498 20.4201C0.00936851 21.5457 0.00936851 23.4054 1.13498 24.531L20.7598 44.1558C21.8854 45.2814 23.7451 45.2814 24.8707 44.1558L44.3976 24.6289C45.5722 23.4543 45.5722 21.6436 44.4466 20.5179Z" fill="#B5E93B"/>
</svg>
