<svg width="41" height="45" viewBox="0 0 41 45" fill="none" xmlns="http://www.w3.org/2000/svg">
<path d="M0.812609 0.00792943C0.812609 0.182377 0.804673 0.301318 0.812609 0.42026C1.11418 3.7189 1.41575 7.01755 1.70939 10.3241C2.12207 15.0025 2.52681 19.6808 2.93949 24.3513C3.40772 29.6006 3.88389 34.8419 4.33625 40.0912C4.36799 40.4718 4.50291 40.6383 4.86003 40.7335C9.93915 42.1291 15.0024 43.5326 20.0815 44.9202C20.4228 45.0154 20.8354 45.0312 21.1767 44.9361C26.2717 43.5405 31.3587 42.1211 36.4537 40.7176C36.8426 40.6066 36.9775 40.4322 37.0093 40.0357C37.168 38.0533 37.3585 36.063 37.5331 34.0807C37.8267 30.7979 38.1124 27.5151 38.406 24.2323C38.7473 20.3786 39.0965 16.5329 39.4377 12.6792C39.6917 9.8087 39.9615 6.94618 40.2155 4.07573C40.3345 2.72772 40.4377 1.37972 40.5488 0H0.812609V0.00792943ZM32.8825 11.458C32.6206 14.3602 32.3587 17.2703 32.0968 20.1725C31.7952 23.5108 31.4937 26.849 31.1921 30.1794C31.1048 31.1389 30.9778 32.0983 30.954 33.0657C30.9381 33.5811 30.7159 33.7159 30.2874 33.8349C27.224 34.6595 24.1686 35.508 21.1132 36.3485C20.9783 36.3881 20.8513 36.4357 20.7164 36.4754C20.6688 36.4516 20.6212 36.4357 20.5656 36.4119C17.2959 35.5238 14.0263 34.6278 10.7566 33.7239C10.6217 33.6842 10.4471 33.4701 10.4312 33.3195C10.201 30.8455 9.9947 28.3715 9.77249 25.8499H14.7643C14.8516 26.8411 14.9468 27.8482 15.0262 28.8631C15.0976 29.7988 15.0897 29.7988 15.9706 30.0367C17.5499 30.4569 19.1371 30.8693 20.7164 31.2816L20.7005 31.2419C22.4306 30.782 24.1607 30.3301 25.8908 29.8384C26.0495 29.7909 26.232 29.5371 26.2558 29.3627C26.359 28.6014 26.4145 27.8323 26.478 27.0711C26.5812 25.842 26.6844 24.6129 26.7955 23.3284H20.7005L20.7164 23.2967C20.6767 23.2967 20.6291 23.2967 20.5894 23.2967H9.54235C9.39156 21.6553 9.24871 20.0297 9.09792 18.3566H20.5974C20.637 18.3566 20.6847 18.3566 20.7243 18.3566L20.7085 18.3249H27.2399C27.3907 16.6201 27.5415 14.9549 27.6923 13.258H20.7005L20.7164 13.2263C20.6767 13.2263 20.6291 13.2263 20.5894 13.2263C16.6769 13.2342 12.7644 13.2342 8.8519 13.2421C8.79635 13.2421 8.7408 13.2184 8.63763 13.1866C8.49478 11.569 8.34399 9.95143 8.20114 8.28625H20.5894C20.6291 8.28625 20.6767 8.28625 20.7164 8.28625L20.7005 8.25453H33.1444C33.0571 9.36466 32.9698 10.4113 32.8825 11.458Z" fill="#B5E93B"/>
</svg>
