<svg width="46" height="45" viewBox="0 0 46 45" fill="none" xmlns="http://www.w3.org/2000/svg">
<path d="M0.809082 0C15.8192 0 30.7989 0 45.8091 0C45.8091 15.0101 45.8091 30.0203 45.8091 45C30.8293 45 15.8192 45 0.809082 45C0.809082 29.9595 0.809082 14.9797 0.809082 0ZM41.069 23.8217C40.1575 22.181 38.9117 21.0567 37.119 20.6617C35.8428 20.3579 34.5667 20.3579 33.2905 20.6313C29.1582 21.4821 27.3958 26.4652 30.0697 29.7772C31.0116 30.9318 32.2574 31.6307 33.564 32.2383C34.7186 32.7853 35.9036 33.3018 37.0582 33.8791C37.8482 34.2741 38.1825 35.0034 38.0913 35.8845C38.0002 36.7657 37.3925 37.2519 36.6328 37.5253C34.9313 38.133 32.9563 37.5861 31.8017 36.158C31.5586 35.8542 31.3155 35.5199 31.0724 35.1857C29.9178 35.8542 28.7935 36.4922 27.6693 37.1607C28.3682 38.528 29.3405 39.6219 30.6774 40.3511C32.9563 41.5969 35.3567 41.7792 37.8179 41.1715C39.4283 40.7765 40.7956 39.9561 41.6463 38.4673C43.2264 35.6415 42.3148 32.1168 39.5194 30.3849C38.2736 29.6253 36.8759 29.1087 35.5694 28.4402C34.9313 28.106 34.2628 27.8022 33.7159 27.3768C32.7436 26.5868 32.9259 25.0068 34.0197 24.3991C35.0832 23.7914 36.5721 24.156 37.3925 25.2194C37.5748 25.4321 37.6963 25.6752 37.8786 25.9183C38.9117 25.2194 39.9752 24.5206 41.069 23.8217ZM12.6592 37.6165C13.2669 38.923 14.148 39.9561 15.3938 40.6246C17.0042 41.5057 18.7665 41.6577 20.5592 41.3842C22.1696 41.1411 23.5066 40.4119 24.3877 38.9534C25.117 37.738 25.3297 36.4011 25.3297 34.973C25.3297 30.3545 25.3297 25.736 25.3297 21.1175C25.3297 20.9959 25.3297 20.844 25.3297 20.6921C23.9016 20.6921 22.5343 20.6921 21.1062 20.6921C21.1062 20.8744 21.1062 21.0263 21.1062 21.2086C21.1062 25.7664 21.1062 30.2937 21.1062 34.8514C21.1062 35.2768 21.0758 35.7326 21.015 36.158C20.8935 36.8569 20.5289 37.3734 19.83 37.5861C18.5235 37.9811 17.46 37.5861 16.7004 36.4618C16.5181 36.158 16.3358 35.8542 16.1231 35.5503C14.938 36.2492 13.8138 36.9176 12.6592 37.6165Z" fill="#B5E93B"/>
</svg>
