<svg width="46" height="45" viewBox="0 0 46 45" fill="none" xmlns="http://www.w3.org/2000/svg">
<path d="M45.7681 3.58117C45.4407 1.86221 44.1105 0.470668 42.412 0.102319C42.3302 0.0818554 42.2483 0.0818554 42.146 0.0613915C42.1255 0.0613915 42.1051 0.0204638 42.0846 0H4.55393C4.53347 0.0204638 4.513 0.0613915 4.47208 0.0613915C2.77358 0.347885 1.34111 1.6985 0.952295 3.41746C0.931831 3.47885 0.890903 3.56071 0.849976 3.64256V41.2756C0.870439 41.3165 0.911367 41.337 0.911367 41.3779C1.32064 43.2606 2.46662 44.427 4.32883 44.8977C4.39022 44.9181 4.43115 44.9591 4.47208 45H42.146C42.1869 44.9795 42.2074 44.9386 42.2483 44.9181C44.1105 44.4884 45.2565 43.3629 45.7272 41.5007C45.7476 41.4393 45.7272 41.3574 45.7476 41.296C45.7476 41.2756 45.7886 41.2551 45.809 41.2347V3.70396C45.809 3.66303 45.7681 3.64257 45.7681 3.58117ZM26.9414 24.9454H26.7163C25.0178 24.9454 23.2988 24.9454 21.6003 24.9454C21.5185 24.9454 21.4366 24.9454 21.3547 24.9454C21.3547 24.9659 21.3343 24.9659 21.3343 24.9864C21.3343 25.0682 21.3343 25.1501 21.3343 25.2319V41.0096H16.8527V24.9659H11.2251V21.3847H26.9209V24.9454H26.9414ZM42.0437 35.648C42.0028 36.3438 41.9004 37.0191 41.6139 37.6739C41.5321 37.8786 41.4707 38.0628 41.3684 38.2674C41 39.045 40.3861 39.5975 39.6699 40.0477C38.8513 40.5593 37.9509 40.8458 37.0096 41.03C35.9659 41.2347 34.9223 41.296 33.8582 41.2551C33.3466 41.2347 32.835 41.2347 32.3234 41.1733C31.116 41.03 29.9291 40.764 28.824 40.2319C28.7627 40.2115 28.6808 40.1091 28.6808 40.0477C28.6808 38.7176 28.6808 37.3875 28.6808 36.0573C28.6808 36.0368 28.6808 36.0164 28.6808 35.9754C29.0082 36.2005 29.3356 36.4256 29.6631 36.6098C30.4612 37.0805 31.3411 37.4079 32.2415 37.6126C33.0191 37.7967 33.7968 37.8172 34.5744 37.7763C35.1678 37.7558 35.7613 37.6126 36.2933 37.3465C36.764 37.101 37.1528 36.7735 37.2551 36.221C37.3575 35.7299 37.3165 35.2387 37.03 34.809C36.6208 34.1951 36.0478 33.8063 35.4134 33.4789C34.6972 33.131 33.9809 32.824 33.2442 32.4966C32.1597 32.0055 31.0955 31.4734 30.2156 30.6548C29.4994 29.9795 28.9673 29.1814 28.7217 28.2196C28.5785 27.6467 28.5375 27.0737 28.558 26.5007C28.5785 25.0887 29.0901 23.8813 30.0928 22.8786C30.9114 22.06 31.9141 21.5689 33.0191 21.2824C33.7763 21.0982 34.5335 20.955 35.3111 20.9345C35.8636 20.9345 36.4161 20.8731 36.9482 20.8936C37.7872 20.9141 38.6058 20.955 39.4243 21.1596C39.9564 21.3029 40.5089 21.4461 41.041 21.5689C41.1433 21.5894 41.1842 21.6508 41.1842 21.7735C41.1842 23.0423 41.1842 24.3315 41.1842 25.6003C41.1842 25.6412 41.1842 25.6821 41.1637 25.7435C41 25.6412 40.8568 25.5593 40.7135 25.4775C40.0587 25.1091 39.3629 24.8636 38.6467 24.6794C37.8486 24.4952 37.0505 24.3724 36.232 24.3929C35.6794 24.4134 35.1064 24.4952 34.5948 24.6794C33.9605 24.9045 33.4489 25.2729 33.2238 25.9482C33.0396 26.4802 33.1828 26.9304 33.5103 27.3602C33.9195 27.8922 34.4721 28.2606 35.0655 28.5471C35.8636 28.9359 36.6822 29.2633 37.4598 29.6317C38.3602 30.0614 39.2606 30.4911 40.0178 31.1255C40.6726 31.678 41.2661 32.292 41.5935 33.1105C41.7777 33.6016 41.9414 34.1132 41.9414 34.6658C42.0232 34.9932 42.0642 35.3206 42.0437 35.648Z" fill="#B5E93B"/>
</svg>
